<mxfile host="app.diagrams.net" modified="2024-06-06T10:32:50.486Z" agent="Mozilla/5.0 (Macintosh; Intel Mac OS X 10_15_7) AppleWebKit/537.36 (KHTML, like Gecko) Chrome/125.0.0.0 Safari/537.36" version="24.4.15" etag="VY1jehRzCYURdsT8q3Lv" type="github">
  <diagram name="Page-1" id="tIHTT1qAlX761kbAqnQI">
    <mxGraphModel>
      <root>
        <mxCell id="0" />
        <mxCell id="1" parent="0" />
      </root>
    </mxGraphModel>
  </diagram>
</mxfile>
